<svg width="24" height="24" viewBox="0 0 24 24" fill="none" xmlns="http://www.w3.org/2000/svg">
<path d="M20.1094 13.9998H20.2304C21.3349 13.9998 22.2304 13.1044 22.2304 11.9998V6.0332C22.2304 4.92863 21.3349 4.0332 20.2304 4.0332H18.6635C18.5344 4.0332 18.4117 3.98189 18.3125 3.89934C16.5378 2.42198 12.5818 2.65405 10.5407 4.6898L7.2307 7.9998C6.83287 8.39763 6.60938 8.93719 6.60938 9.4998C6.60938 10.6552 7.57528 11.6211 8.7307 11.6211C9.2933 11.6211 9.83287 11.3976 10.2307 10.9998L11.666 9.7498C12.8532 8.68151 14.4456 8.71611 15.6007 9.8698L19.7307 13.4998C19.881 13.6502 20.0144 13.8191 20.1094 13.9998Z" fill="#FFCFB4"/>
<path d="M11.1904 4.00391C11.2444 4.00473 11.2973 4.01524 11.3486 4.03125C11.0586 4.22472 10.7876 4.44446 10.541 4.69043L7.23047 8C6.83271 8.39781 6.60939 8.93745 6.60938 9.5C6.60938 10.6553 7.57516 11.621 8.73047 11.6211C9.29304 11.6211 9.83265 11.3978 10.2305 11L11.666 9.75C12.8532 8.68173 14.4455 8.71645 15.6006 9.87012L19.7305 13.5C19.8777 13.6472 20.008 13.8128 20.1025 13.9893C21.0758 15.9698 18.7247 18.0358 16.999 16.3105L14.0449 13.3555C13.8059 13.1166 13.4177 13.1165 13.1787 13.3555C12.9399 13.5944 12.94 13.9817 13.1787 14.2207L16.1367 17.1562C17.8711 18.8906 15.0845 21.2397 13.624 19.7793L10.4785 16.6338C10.2395 16.3947 9.85135 16.3947 9.6123 16.6338C9.3737 16.8727 9.37376 17.2591 9.6123 17.498L12.11 19.9958C12.2657 20.1514 12.3049 20.3936 12.1755 20.5716C11.6967 21.2299 10.9237 21.6639 10.0596 21.6641C9.3641 21.664 8.69694 21.3872 8.20508 20.8955L3.35059 16.042C2.33834 15.0297 1.76957 13.6562 1.76953 12.2246V7.46973C1.76955 5.55256 3.3241 3.99907 5.24121 4L11.1904 4.00391Z" fill="#FB6A22"/>
</svg>
