<svg width="20" height="20" viewBox="0 0 20 20" fill="none" xmlns="http://www.w3.org/2000/svg">
<path d="M5.62305 15.377C3.98242 15.377 3.00391 14.3984 3.00391 12.7578V6.79297C3.00391 5.15234 3.98242 4.17383 5.62305 4.17383H14.4531C16.041 4.17383 16.9902 5.15234 16.9902 6.79297V12.7578C16.9902 14.3984 16.041 15.377 14.4531 15.377H5.62305ZM5.78711 13.8652H10.5918V5.68555H5.78711C4.98438 5.68555 4.51562 6.1543 4.51562 6.95703V12.5938C4.51562 13.3965 4.98438 13.8652 5.78711 13.8652ZM14.2129 5.68555H11.9863V13.8652H14.2129C15.0098 13.8652 15.4785 13.3965 15.4785 12.5938V6.95703C15.4785 6.1543 15.0098 5.68555 14.2129 5.68555ZM13.1758 7.7832C12.9121 7.7832 12.7012 7.57227 12.7012 7.33203C12.7012 7.08594 12.9121 6.88086 13.1758 6.88086H14.2832C14.541 6.88086 14.752 7.08594 14.752 7.33203C14.752 7.57227 14.541 7.7832 14.2832 7.7832H13.1758ZM13.1758 9.44141C12.9121 9.44141 12.7012 9.23633 12.7012 8.99023C12.7012 8.75 12.9121 8.54492 13.1758 8.54492H14.2832C14.541 8.54492 14.752 8.75 14.752 8.99023C14.752 9.23633 14.541 9.44141 14.2832 9.44141H13.1758ZM13.1758 11.1055C12.9121 11.1055 12.7012 10.8945 12.7012 10.6543C12.7012 10.4082 12.9121 10.2031 13.1758 10.2031H14.2832C14.541 10.2031 14.752 10.4082 14.752 10.6543C14.752 10.8945 14.541 11.1055 14.2832 11.1055H13.1758Z" fill="black"/>
</svg>
