<svg width="24" height="24" viewBox="0 0 24 24" fill="none" xmlns="http://www.w3.org/2000/svg">
<rect width="24" height="24" rx="6" fill="#1E1E1E"/>
<path d="M12 4C11.4477 4 11 4.44772 11 5V7C11 7.55228 11.4477 8 12 8C12.5523 8 13 7.55228 13 7V5C13 4.44772 12.5523 4 12 4Z" fill="white"/>
<path d="M12 16C11.4477 16 11 16.4477 11 17V19C11 19.5523 11.4477 20 12 20C12.5523 20 13 19.5523 13 19V17C13 16.4477 12.5523 16 12 16Z" fill="white"/>
<path d="M7 12C7 11.4477 6.55228 11 6 11H4C3.44772 11 3 11.4477 3 12C3 12.5523 3.44772 13 4 13H6C6.55228 13 7 12.5523 7 12Z" fill="white"/>
<path d="M20 11C20.5523 11 21 11.4477 21 12C21 12.5523 20.5523 13 20 13H18C17.4477 13 17 12.5523 17 12C17 11.4477 17.4477 11 18 11H20Z" fill="white"/>
<circle cx="12" cy="12" r="3" fill="white"/>
</svg>
