<?xml version="1.0" encoding="utf-8"?>
<!-- Generator: Adobe Illustrator 27.5.0, SVG Export Plug-In . SVG Version: 6.00 Build 0)  -->
<svg version="1.1" xmlns="http://www.w3.org/2000/svg" xmlns:xlink="http://www.w3.org/1999/xlink" x="0px" y="0px"
	 viewBox="0 0 2200 2200" style="enable-background:new 0 0 2200 2200;" xml:space="preserve">
<g id="background">
	<rect style="fill:#FFFFFF;" width="2200" height="2200"/>
</g>
<g id="Objects">
	<g>
		<g>
			<g>
				<path style="fill:#E24D4D;" d="M1715.478,827.895l-381.904-381.904l154.328-154.327c24.902-24.902,65.275-24.902,90.177,0
					l291.727,291.727c24.902,24.902,24.902,65.275,0,90.177L1715.478,827.895z"/>
				<path style="fill:#D8D8D8;" d="M1667.818,876.691c14.107,14.107,14.107,36.97,0,51.077l-9.586,9.586
					c-14.107,14.107-36.97,14.107-51.077,0l-383.04-383.04c-14.107-14.107-14.107-36.97,0-51.077l9.586-9.586
					c14.107-14.107,36.97-14.107,51.077,0c-14.107-14.107-14.099-36.978,0.008-51.085l9.586-9.586
					c14.099-14.099,36.97-14.107,51.077,0l383.04,383.04c14.107,14.107,14.099,36.978,0,51.077l-9.586,9.586
					C1704.796,890.79,1681.925,890.798,1667.818,876.691z"/>
				<path style="fill:#424242;" d="M478.735,1801.407l-109.452,13.564c-13.207,1.636-24.422-9.578-22.785-22.785l13.564-109.452
					c29.145,3.598,57.359,16.581,79.726,38.948S475.136,1772.262,478.735,1801.407z"/>
				<path style="fill:#F2DFAF;" d="M779.211,1764.166l-300.476,37.242c-3.598-29.145-16.581-57.359-38.948-79.726
					s-50.581-35.349-79.726-38.948l37.242-300.476l163.329,40.421l27.625,150.533l150.533,27.625L779.211,1764.166z"/>
				<polygon style="fill:#EFC03C;" points="1504.713,834.914 738.789,1600.837 588.257,1573.212 560.632,1422.679 1326.555,656.756 
									"/>
				<polygon style="fill:#F9CD41;" points="1326.555,656.756 560.632,1422.679 397.303,1382.258 1224.68,554.881 				"/>
				<polygon style="fill:#F9CD41;" points="1606.588,936.789 779.211,1764.166 738.789,1600.837 1504.713,834.914 				"/>
			</g>
			<path d="M1865.729,593.661c0-20.254-7.888-39.297-22.21-53.619l-291.727-291.728c-29.566-29.564-77.673-29.565-107.239,0
				L1310.26,382.607c-7.5-4.612-16.143-7.086-25.169-7.086c-12.871,0-24.972,5.012-34.072,14.113l-9.585,9.584
				c-9.101,9.101-14.113,21.202-14.113,34.072c0,1.005,0.042,2.004,0.102,2.999c-0.995-0.061-1.993-0.102-2.999-0.102
				c-12.871,0-24.972,5.012-34.072,14.113l-9.585,9.584c-9.101,9.101-14.113,21.202-14.113,34.072
				c0,9.026,2.474,17.669,7.086,25.169c0,0-819.708,819.708-819.785,819.785c-0.351,0.35-0.672,0.736-0.981,1.123
				c-0.882,1.107-1.534,2.38-1.967,3.726c-0.219,0.679-0.384,1.391-0.478,2.099c-0.004,0.033-0.012,0.066-0.016,0.099
				l-50.808,409.925c-1.241,10.01,2.138,19.841,9.27,26.974c6.163,6.163,14.34,9.523,22.908,9.523c1.348,0,2.707-0.083,4.067-0.252
				l409.859-50.801c0.015-0.002,0.029-0.004,0.067-0.008c1.303-0.162,2.6-0.547,3.782-1.12c1.201-0.582,2.32-1.377,3.265-2.322
				l819.785-819.785c7.5,4.612,16.142,7.085,25.168,7.085c12.87,0,24.971-5.012,34.072-14.113l9.585-9.585
				c10.155-10.156,14.809-23.754,13.985-37.073c1.003,0.062,2.01,0.104,3.024,0.104c12.87,0,24.971-5.012,34.072-14.113l9.585-9.585
				c16.043-16.044,18.374-40.675,7.015-59.228l134.304-134.304C1857.841,632.958,1865.729,613.916,1865.729,593.661z
				 M750.969,1705.707l-33.65-135.972l752.577-752.578l84.812,84.812L750.969,1705.707z M453.932,1753.192
				c-5.828-28.4-19.662-54.087-40.433-74.858c-20.771-20.771-46.458-34.605-74.857-40.433l34.144-275.48l142.567,35.282
				l26.219,142.869c0.904,4.928,4.761,8.784,9.688,9.688l142.87,26.22l35.282,142.566L453.932,1753.192z M1452.833,800.096
				l-752.915,752.915l-136.115-24.98l-24.98-136.114l752.915-752.916l80.548,80.548L1452.833,800.096z M1274.676,621.939
				l-752.577,752.577l-135.973-33.65l803.738-803.738L1274.676,621.939z M332.982,1768.184c-3.527,0.435-5.866-1.309-6.945-2.388
				s-2.824-3.416-2.386-6.943l12.01-96.894c23.019,5.101,43.849,16.509,60.777,33.438c16.929,16.928,28.336,37.758,33.437,60.777
				L332.982,1768.184z M1624.47,884.419l-9.585,9.584c-4.543,4.544-10.585,7.046-17.01,7.046c-6.426,0-12.467-2.502-17.01-7.045
				L1197.83,510.968c-4.544-4.543-7.047-10.584-7.047-17.01s2.503-12.466,7.047-17.01l9.585-9.585
				c4.543-4.543,10.584-7.045,17.01-7.045c6.425,0,12.467,2.502,17.01,7.045l383.035,383.035
				C1633.849,859.778,1633.849,875.04,1624.47,884.419z M1685.137,823.752l-9.585,9.584c-4.543,4.544-10.585,7.046-17.01,7.046
				c-6.426,0-12.467-2.502-17.01-7.045l-383.035-383.036c-4.544-4.543-7.047-10.584-7.047-17.01s2.503-12.466,7.047-17.01
				l9.585-9.585c4.543-4.543,10.584-7.045,17.01-7.045c6.425,0,12.467,2.502,17.01,7.045l0.561,0.561
				c0.002,0.002,0.003,0.004,0.005,0.005l381.904,381.904l0.565,0.565C1694.516,799.111,1694.516,814.373,1685.137,823.752z
				 M1826.456,630.219l-133.354,133.354L1328.26,398.731l133.355-133.354c20.156-20.157,52.956-20.157,73.114,0l291.727,291.728
				c9.766,9.765,15.144,22.748,15.144,36.557C1841.6,607.471,1836.222,620.454,1826.456,630.219z"/>
		</g>
		<ellipse style="fill:#D3D3D3;" cx="1100" cy="1940.313" rx="775.562" ry="21.517"/>
	</g>
</g>
</svg>
