<svg width="24" height="24" viewBox="0 0 24 24" fill="none" xmlns="http://www.w3.org/2000/svg">
<path d="M20.4994 1.59961C21.2726 1.59961 21.8998 2.2268 21.8998 3V7C21.8998 7.49706 21.4964 7.90039 20.9994 7.90039C20.5025 7.90019 20.099 7.49693 20.099 7V4.54395L14.7289 9.36426C14.199 9.83977 13.397 9.84186 12.8646 9.36914L10.1771 6.98242L3.59802 12.875C3.2279 13.2065 2.65917 13.1755 2.32751 12.8057C1.99592 12.4354 2.0266 11.8658 2.39685 11.5342L9.24158 5.4043C9.73832 4.95944 10.474 4.93033 11.0023 5.31738L11.1058 5.40039L13.7924 7.78613L18.6791 3.40039H16.4994C16.0025 3.40019 15.599 2.99693 15.599 2.5C15.599 2.00307 16.0025 1.59981 16.4994 1.59961H20.4994Z" fill="#04B84C"/>
<path d="M21 19.0996C21.4971 19.0996 21.9004 19.5029 21.9004 20C21.9004 20.4971 21.4971 20.9004 21 20.9004H3C2.50294 20.9004 2.09961 20.4971 2.09961 20C2.09961 19.5029 2.50294 19.0996 3 19.0996H21Z" fill="#04B84C"/>
<path d="M3.10303 17V15.5C3.10303 15.0029 3.50636 14.5996 4.00342 14.5996C4.50047 14.5996 4.90381 15.0029 4.90381 15.5V17C4.90381 17.4971 4.50047 17.9004 4.00342 17.9004C3.50636 17.9004 3.10303 17.4971 3.10303 17Z" fill="#04B84C" fill-opacity="0.5"/>
<path d="M7.09814 17V12.5C7.09814 12.0029 7.50148 11.5996 7.99854 11.5996C8.49559 11.5996 8.89893 12.0029 8.89893 12.5V17C8.89893 17.4971 8.49559 17.9004 7.99854 17.9004C7.50148 17.9004 7.09814 17.4971 7.09814 17Z" fill="#04B84C" fill-opacity="0.5"/>
<path d="M11.0933 17V12.8125C11.0933 12.3154 11.4966 11.9121 11.9937 11.9121C12.4907 11.9121 12.894 12.3154 12.894 12.8125V17C12.894 17.4971 12.4907 17.9004 11.9937 17.9004C11.4966 17.9004 11.0933 17.4971 11.0933 17Z" fill="#04B84C" fill-opacity="0.5"/>
<path d="M15.0884 17V11.75C15.0884 11.2529 15.4917 10.8496 15.9888 10.8496C16.4858 10.8496 16.8892 11.2529 16.8892 11.75V17C16.8892 17.4971 16.4858 17.9004 15.9888 17.9004C15.4917 17.9004 15.0884 17.4971 15.0884 17Z" fill="#04B84C" fill-opacity="0.5"/>
<path d="M19.0835 17V10.5C19.0835 10.0029 19.4868 9.59961 19.9839 9.59961C20.4809 9.59961 20.8843 10.0029 20.8843 10.5V17C20.8843 17.4971 20.4809 17.9004 19.9839 17.9004C19.4868 17.9004 19.0835 17.4971 19.0835 17Z" fill="#04B84C" fill-opacity="0.5"/>
</svg>
