<svg width="24" height="24" viewBox="0 0 24 24" fill="none" xmlns="http://www.w3.org/2000/svg">
<rect x="9.5" y="4" width="5" height="5" rx="1" fill="#FF66AD" stroke="#FF66AD" stroke-width="1.8" stroke-linecap="round"/>
<path d="M15.5 16.6C15.5 16.0399 15.5 15.7599 15.609 15.546C15.7049 15.3578 15.8578 15.2049 16.046 15.109C16.2599 15 16.5399 15 17.1 15H18.9C19.4601 15 19.7401 15 19.954 15.109C20.1422 15.2049 20.2951 15.3578 20.391 15.546C20.5 15.7599 20.5 16.0399 20.5 16.6V18.4C20.5 18.9601 20.5 19.2401 20.391 19.454C20.2951 19.6422 20.1422 19.7951 19.954 19.891C19.7401 20 19.4601 20 18.9 20H17.1C16.5399 20 16.2599 20 16.046 19.891C15.8578 19.7951 15.7049 19.6422 15.609 19.454C15.5 19.2401 15.5 18.9601 15.5 18.4V16.6Z" fill="#FF66AD" stroke="#FF66AD" stroke-width="1.8" stroke-linecap="round"/>
<path d="M3.5 16.6C3.5 16.0399 3.5 15.7599 3.60899 15.546C3.70487 15.3578 3.85785 15.2049 4.04601 15.109C4.25992 15 4.53995 15 5.1 15H6.9C7.46005 15 7.74008 15 7.95399 15.109C8.14215 15.2049 8.29513 15.3578 8.39101 15.546C8.5 15.7599 8.5 16.0399 8.5 16.6V18.4C8.5 18.9601 8.5 19.2401 8.39101 19.454C8.29513 19.6422 8.14215 19.7951 7.95399 19.891C7.74008 20 7.46005 20 6.9 20H5.1C4.53995 20 4.25992 20 4.04601 19.891C3.85785 19.7951 3.70487 19.6422 3.60899 19.454C3.5 19.2401 3.5 18.9601 3.5 18.4V16.6Z" fill="#FF66AD" stroke="#FF66AD" stroke-width="1.8" stroke-linecap="round"/>
<circle cx="2.76152" cy="5.9998" r="1.7" fill="#FF66AD" stroke="#FF66AD" stroke-width="1.8" stroke-linecap="round"/>
<circle cx="21.2815" cy="5.9998" r="1.7" fill="#FF66AD" stroke="#FF66AD" stroke-width="1.8" stroke-linecap="round"/>
<path d="M15.0352 5.09961H19.5002V6.90039H16.4416C17.1636 7.48718 17.7855 8.21825 18.2629 9.13574C18.9414 10.4398 19.3009 12.0661 19.301 14.0908V14.7812H17.5002V14.0908C17.5001 12.2749 17.1783 10.9512 16.6662 9.9668C16.2553 9.17704 15.7035 8.57058 15.0352 8.09036V5.09961Z" fill="#FF66AD" fill-opacity="0.5"/>
<path d="M9.36816 5.09961H4.90314V6.90039H7.96173C7.23976 7.48718 6.61786 8.21825 6.14044 9.13574C5.46193 10.4398 5.10241 12.0661 5.10236 14.0908V14.7812H6.90314V14.0908C6.90319 12.2749 7.22497 10.9512 7.73712 9.9668C8.14807 9.17704 8.69981 8.57058 9.36816 8.09036V5.09961Z" fill="#FF66AD" fill-opacity="0.5"/>
</svg>
