<svg width="18" height="18" viewBox="0 0 18 18" fill="none" xmlns="http://www.w3.org/2000/svg">
<g clip-path="url(#clip0_21_11)">
<g clip-path="url(#clip1_21_11)">
<path d="M0 9C0 11.3869 0.948212 13.6761 2.63604 15.364C4.32387 17.0518 6.61305 18 9 18C11.3869 18 13.6761 17.0518 15.364 15.364C17.0518 13.6761 18 11.3869 18 9C18 6.61305 17.0518 4.32387 15.364 2.63604C13.6761 0.948212 11.3869 0 9 0C6.61305 0 4.32387 0.948212 2.63604 2.63604C0.948212 4.32387 0 6.61305 0 9Z" fill="#FF2741"/>
<path d="M13.7158 8.56802H14.1748C14.2468 7.88402 14.2108 7.84802 13.7158 7.92902V8.56802ZM14.3728 10.494H15.3088C15.3088 10.206 15.3178 9.94502 15.3088 9.68402C15.2998 9.51302 15.1828 9.41402 14.9848 9.41402C14.5708 9.40502 14.1568 9.41402 13.7158 9.41402V11.196H12.7528V9.41402H11.7898V8.58602H12.7258V7.92002C12.5278 7.91102 12.3208 7.90202 12.1138 7.89302V7.07402H12.7258C12.7438 6.97502 12.7528 6.89402 12.7708 6.80402H13.6888C13.7068 6.88502 13.7158 6.95702 13.7338 7.05602C14.1928 7.05602 14.7148 7.06502 14.9398 7.45202C15.1288 7.77602 15.1468 8.18102 15.2458 8.57702C15.2548 8.57702 15.3358 8.57702 15.4078 8.58602C15.9208 8.63102 16.2448 8.91002 16.2718 9.35102C16.2898 9.73802 16.2898 10.116 16.2718 10.503C16.2448 10.962 15.8668 11.214 15.2728 11.205C14.7058 11.196 14.3998 10.953 14.3728 10.494ZM10.8538 10.377H11.7718V11.187H8.42375C8.58575 10.908 8.73875 10.647 8.90075 10.368H9.83675V7.90202H9.25175V7.08302H11.4388V7.89302H10.8538V10.377ZM7.60475 8.74802C7.37975 8.73002 7.19075 8.73002 7.01075 8.69402C6.76775 8.65802 6.66875 8.50502 6.76775 8.31602C7.02875 7.83002 7.29875 7.35302 7.56875 6.86702C7.59575 6.82202 7.69475 6.79502 7.75775 6.79502C8.00975 6.78602 8.25275 6.79502 8.54975 6.79502C8.32475 7.20002 8.10875 7.58702 7.89275 7.97402L7.95575 8.01902C8.27975 7.79402 8.64875 7.94702 9.06275 7.88402C8.76575 8.40602 8.49575 8.88302 8.19875 9.39602C8.43275 9.41402 8.59475 9.41402 8.80175 9.43202C8.68475 9.64802 8.56775 9.84602 8.44175 10.044C8.42375 10.08 8.34275 10.107 8.29775 10.107C8.00075 10.107 7.70375 10.125 7.40675 10.098C7.08275 10.071 6.97475 9.90902 7.10075 9.64802C7.25375 9.35102 7.42475 9.06302 7.60475 8.74802ZM3.61775 6.80402H4.57175C4.58075 6.84002 4.58975 6.88502 4.58975 6.92102V10.44C4.58975 10.962 4.24775 11.232 3.68975 11.196C3.28475 11.169 3.07775 10.98 2.98775 10.521C3.09575 10.521 3.19475 10.512 3.29375 10.512H3.60875C3.61775 10.512 3.61775 6.80402 3.61775 6.80402ZM2.00675 7.91102H2.99675C2.79875 8.89202 3.02375 9.91802 2.24975 10.836C2.06075 10.53 1.89875 10.26 1.73675 9.98102C1.71875 9.95402 1.71875 9.91802 1.71875 9.88202C1.81775 9.23402 1.90775 8.58602 2.00675 7.91102ZM5.91275 10.827C5.18375 9.92702 5.38175 8.90102 5.21075 7.91102H6.18275L6.31775 9.36902C6.31775 9.39602 6.30875 9.42302 6.31775 9.45002C6.56075 9.97202 6.18275 10.359 5.91275 10.827ZM6.40775 11.205C6.60575 10.881 6.74075 10.638 6.89375 10.404C6.91175 10.368 6.98375 10.332 7.02875 10.332C7.25375 10.341 7.47875 10.368 7.70375 10.377C7.92875 10.386 8.15375 10.377 8.41475 10.377C8.26175 10.647 8.11775 10.881 7.97375 11.124C7.94675 11.16 7.88375 11.205 7.83875 11.205H6.40775ZM15.3178 7.88402C15.3178 7.72202 15.2998 7.56902 15.3178 7.41602C15.3448 7.20002 15.5698 7.04702 15.8128 7.06502C16.0468 7.08302 16.2358 7.24502 16.2628 7.45202C16.2808 7.65902 16.1098 7.86602 15.8578 7.88402C15.6868 7.89302 15.5068 7.88402 15.3178 7.88402Z" fill="white"/>
</g>
</g>
<defs>
<clipPath id="clip0_21_11">
<rect width="18" height="18" fill="white"/>
</clipPath>
<clipPath id="clip1_21_11">
<rect width="18" height="18" fill="white"/>
</clipPath>
</defs>
</svg>
