<svg width="18" height="18" viewBox="0 0 18 18" fill="none" xmlns="http://www.w3.org/2000/svg">
<g clip-path="url(#clip0_21_13)">
<path d="M8.99219 0C13.9631 0 17.9922 4.02909 17.9922 9C17.9919 13.9707 13.9629 18 8.99219 18C4.02144 18 -0.00754885 13.9707 -0.0078125 9C-0.0078125 4.02909 4.02128 5.16977e-07 8.99219 0ZM2.97168 5.89746C2.97166 5.75474 2.96068 5.77126 2.85156 5.81934C2.51287 5.95742 2.17658 6.09044 1.83789 6.2207C1.82747 6.23112 1.81087 6.26529 1.81738 6.28223C1.92027 6.66515 1.99608 7.05848 2.04688 7.44922C2.09766 7.78781 2.14127 8.11616 2.18945 8.44824C2.23114 8.74004 2.2591 9.0308 2.29297 9.3252C2.32684 9.62348 2.36848 9.92177 2.40234 10.2227C2.4362 10.5091 2.47103 10.7865 2.50488 11.0742C2.52832 11.2786 2.54948 11.4808 2.56641 11.6865C2.57682 11.8467 2.58983 12.0085 2.59375 12.1621C2.59375 12.1959 2.60396 12.2128 2.6377 12.2129C2.71325 12.2129 2.78285 12.2233 2.85449 12.2129C3.20335 12.1791 3.55218 12.1543 3.89453 12.1035C4.15767 12.0618 4.41623 12.001 4.66895 11.915C5.02834 11.7952 5.33558 11.5892 5.63379 11.3535C5.76005 11.2572 5.86288 11.1412 5.90723 10.9941C6.00232 10.7518 5.96199 10.587 5.78613 10.4541C5.57389 10.294 5.33395 10.181 5.08789 10.082C4.58383 9.88409 4.05745 9.81087 3.51953 9.8252C3.39325 9.82521 3.2669 9.83626 3.13672 9.84277C3.13672 9.83238 3.12603 9.81766 3.12598 9.80078C3.09212 9.4166 3.05079 9.03359 3.02344 8.65723C2.9987 8.34342 2.98796 8.028 2.98145 7.71289C2.97102 7.10716 2.97168 6.50319 2.97168 5.89746ZM10.2285 5.89746C10.2285 5.75466 10.2177 5.77119 10.1084 5.81934C9.76971 5.95742 9.43342 6.09044 9.09473 6.2207C9.08564 6.2286 9.06771 6.2623 9.07129 6.2793C9.17416 6.66212 9.24998 7.05565 9.30078 7.44629C9.35158 7.78498 9.39614 8.11411 9.44434 8.44629C9.48597 8.73784 9.51304 9.02812 9.54688 9.32227C9.58073 9.62044 9.62239 9.91895 9.65625 10.2197C9.69012 10.5063 9.7259 10.7844 9.75977 11.0723C9.7832 11.2767 9.80339 11.4788 9.82031 11.6846C9.83073 11.8447 9.84375 12.0065 9.84766 12.1602C9.84774 12.1937 9.85885 12.2109 9.89258 12.2109C9.96796 12.211 10.0369 12.2213 10.1084 12.2109C10.4575 12.1771 10.8068 12.1524 11.1494 12.1016C11.4125 12.0599 11.6702 11.998 11.9229 11.9121C12.2824 11.7923 12.5904 11.5864 12.8887 11.3506C13.0149 11.2542 13.1179 11.1383 13.1621 10.9912C13.2611 10.7516 13.2201 10.587 13.043 10.4541C12.8308 10.2941 12.5907 10.181 12.3447 10.082C11.8407 9.88415 11.3142 9.81087 10.7764 9.8252C10.6502 9.82522 10.5237 9.83627 10.3936 9.84277C10.3936 9.83238 10.3838 9.81765 10.3838 9.80078C10.3499 9.4166 10.3076 9.0336 10.2803 8.65723C10.2555 8.34342 10.2458 8.028 10.2393 7.71289C10.2288 7.10716 10.2285 6.50319 10.2285 5.89746ZM3.99219 10C4.1765 10.0788 4.95269 10.6661 4.99219 10.7598C4.70855 11.1667 4.4281 11.5815 4.13477 12C4.0875 11.3181 4.03945 10.6565 3.99219 10ZM10.9922 10C11.1765 10.0788 11.9527 10.6661 11.9922 10.7598C11.7086 11.1667 11.4281 11.5815 11.1348 12C11.0875 11.3181 11.0394 10.6565 10.9922 10ZM8.2666 9.13672C8.19887 9.13672 8.1374 9.14583 8.06836 9.16016C8.07479 9.18473 8.0752 9.20189 8.0752 9.21875C8.09994 9.5052 8.12695 9.78907 8.15039 10.0703C8.17513 10.3438 8.20312 10.625 8.22656 10.8984C8.25391 11.1966 8.27735 11.4938 8.30469 11.792C8.30469 11.8089 8.33169 11.8369 8.34863 11.8369C8.5297 11.8434 8.72127 11.8366 8.91406 11.8379C8.90756 11.8015 8.90723 11.7767 8.90723 11.7598C8.90071 11.4211 8.8903 11.0916 8.88379 10.7529C8.87728 10.3361 8.88379 9.91131 8.88379 9.49316C8.88379 9.40083 8.87793 9.31497 8.87402 9.22266C8.87402 9.181 8.84893 9.14653 8.80469 9.14648C8.62622 9.13997 8.44506 9.13672 8.2666 9.13672ZM15.5254 9.13672C15.4577 9.13672 15.3962 9.14584 15.3271 9.16016C15.3335 9.18467 15.333 9.20191 15.333 9.21875C15.3578 9.50521 15.3857 9.78905 15.4092 10.0703C15.4339 10.3437 15.4609 10.625 15.4844 10.8984C15.5117 11.1966 15.5352 11.4938 15.5625 11.792C15.5625 11.8089 15.5905 11.8369 15.6074 11.8369C15.7884 11.8434 15.9802 11.8366 16.1729 11.8379C16.1663 11.8014 16.166 11.7767 16.166 11.7598C16.1595 11.4211 16.1491 11.0916 16.1426 10.7529C16.1361 10.3361 16.1426 9.91131 16.1426 9.49316C16.1426 9.40082 16.1357 9.31498 16.1318 9.22266C16.1318 9.18097 16.1068 9.14648 16.0625 9.14648C15.8843 9.13999 15.7036 9.13672 15.5254 9.13672ZM6.55859 9.04297C6.46233 9.05206 6.3596 9.05211 6.26074 9.06641C6.12407 9.08333 5.98595 9.10807 5.84277 9.125C6.01339 10.0184 6.18518 10.8914 6.3623 11.7783C6.56808 11.751 6.76363 11.7269 6.96289 11.7021C6.95639 11.6347 6.94596 11.5659 6.93945 11.5049C6.9121 11.2795 6.88478 11.06 6.86133 10.8438C6.83659 10.6393 6.81543 10.4372 6.79199 10.2314C6.76726 9.99839 6.74804 9.76235 6.7168 9.5293C6.69987 9.38483 6.6761 9.248 6.65527 9.11133C6.6474 9.05936 6.61323 9.03646 6.55859 9.04297ZM13.8174 9.04297C13.721 9.05209 13.6176 9.05208 13.5186 9.06641C13.3819 9.08334 13.2437 9.10808 13.1006 9.125C13.2712 10.0185 13.4417 10.8913 13.6201 11.7783C13.8258 11.751 14.0215 11.7269 14.2207 11.7021C14.2142 11.6347 14.2038 11.5659 14.1973 11.5049C14.1699 11.2795 14.1426 11.06 14.1191 10.8438C14.0944 10.6394 14.0742 10.4371 14.0508 10.2314C14.026 9.99838 14.0059 9.76236 13.9746 9.5293C13.9577 9.38486 13.9349 9.24798 13.9141 9.11133C13.9062 9.05936 13.872 9.03651 13.8174 9.04297ZM6.98633 6.54004C6.88353 6.55045 6.78054 6.5638 6.68164 6.57422C6.98903 8.21155 7.12559 9.85193 7.28711 11.4775C7.47594 11.4945 7.64677 11.5046 7.8252 11.5215C7.85894 11.5279 7.8763 11.5211 7.875 11.4873L7.85742 11.2988C7.8444 11.0736 7.81933 10.8548 7.7959 10.6387C7.77896 10.4407 7.76075 10.2302 7.7373 10.0322C7.71256 9.7588 7.68555 9.48534 7.66211 9.20801C7.63866 8.95401 7.62826 8.70386 7.61133 8.45117C7.58658 8.10206 7.55958 7.75243 7.53613 7.40332L7.48535 6.62988C7.47882 6.53358 7.44072 6.51011 7.3418 6.5166C7.22203 6.52571 7.10609 6.53353 6.98633 6.54004ZM14.2432 6.54004C14.1403 6.55046 14.0374 6.5638 13.9385 6.57422C14.2459 8.21156 14.3824 9.85192 14.5439 11.4775C14.7328 11.4945 14.9036 11.5046 15.082 11.5215C15.1172 11.528 15.1344 11.5212 15.1318 11.4873L15.1143 11.2988C15.1012 11.0736 15.0771 10.8548 15.0537 10.6387C15.0368 10.4407 15.0186 10.2302 14.9951 10.0322C14.9704 9.75877 14.9424 9.48537 14.9189 9.20801C14.8955 8.95401 14.8851 8.70387 14.8682 8.45117C14.8434 8.10206 14.8164 7.75243 14.793 7.40332L14.7422 6.62988C14.7357 6.53357 14.6976 6.51009 14.5986 6.5166C14.4788 6.52572 14.363 6.53353 14.2432 6.54004ZM7.99219 7.8125C8.01954 8.16943 8.04296 8.50474 8.07031 8.83691C8.16255 8.83042 8.25481 8.82386 8.35742 8.81348V7.875C8.35735 7.82459 8.34085 7.8145 8.29688 7.81445V7.8125H7.99219ZM15.25 7.8125C15.2774 8.16943 15.3008 8.50474 15.3281 8.83691C15.4206 8.8304 15.5133 8.8239 15.6162 8.81348V7.875C15.6161 7.82448 15.5989 7.81445 15.5547 7.81445V7.8125H15.25ZM8.48242 7.81641V8.81738C8.61138 8.8239 8.73563 8.82747 8.85547 8.83398V7.89453C8.85538 7.83375 8.8307 7.8165 8.78027 7.81641H8.48242ZM15.7412 7.81641V8.81738C15.87 8.82389 15.9936 8.82749 16.1133 8.83398V7.89453C16.1132 7.83358 16.0888 7.81641 16.0381 7.81641H15.7412ZM5.63379 7.80469C5.69499 8.14327 5.75423 8.47164 5.81543 8.80371L6.09277 8.75586V8.68652C6.07584 8.50818 6.0511 8.33753 6.03418 8.15918C6.02376 8.04588 6.01042 7.93622 6 7.82031C5.99236 7.79296 6.00604 7.75327 5.95801 7.75977C5.84871 7.76891 5.7431 7.79298 5.63379 7.80469ZM12.8926 7.80469C12.9538 8.14323 13.012 8.47168 13.0732 8.80371L13.3506 8.75586V8.68652C13.3337 8.5082 13.3089 8.33752 13.292 8.15918C13.2816 8.0459 13.2692 7.9362 13.2588 7.82031C13.2511 7.79297 13.2648 7.75331 13.2168 7.75977C13.1075 7.76888 13.0006 7.79295 12.8926 7.80469ZM6.10547 7.71094C6.14974 8.0599 6.19108 8.39616 6.23535 8.74121C6.36171 8.73079 6.47586 8.7282 6.5957 8.71387C6.56185 8.38832 6.53418 8.08076 6.50293 7.76562C6.4951 7.72546 6.47805 7.70513 6.44434 7.70508C6.33491 7.70508 6.22271 7.70442 6.10547 7.71094ZM13.3643 7.71094C13.4085 8.05992 13.4499 8.39614 13.4941 8.74121C13.6204 8.7308 13.7337 8.72818 13.8535 8.71387C13.8197 8.38834 13.792 8.08074 13.7607 7.76562C13.7529 7.72547 13.7359 7.70508 13.7021 7.70508C13.593 7.70508 13.4799 7.70445 13.3643 7.71094Z" fill="#FF3A80"/>
</g>
<defs>
<clipPath id="clip0_21_13">
<rect width="18" height="18" fill="white"/>
</clipPath>
</defs>
</svg>
