<svg width="18" height="18" viewBox="0 0 18 18" fill="none" xmlns="http://www.w3.org/2000/svg">
<g clip-path="url(#clip0_21_8)">
<path d="M0 9.0005C0 13.9711 4.0293 18.0004 9.0005 18.0004C13.9711 18.0004 18.0004 13.9711 18.0004 9.0005C18.0004 4.0299 13.9711 0 9.0005 0C4.0299 0 0 4.0293 0 9.0005Z" fill="#170B1A"/>
<path d="M9.00924 5.91313C9.01764 4.96824 9.00924 4.01434 9.01764 3.06885H10.9531C10.944 3.23994 10.9711 3.40202 10.9981 3.56411L9.67498 3.67216L9.78304 11.2505C9.79205 11.5747 9.55792 12.3035 9.39584 12.5826C9.14371 13.0148 8.37891 13.4104 7.87464 13.4555C7.56008 13.4825 7.32596 13.4014 7.03781 13.2484C6.8217 13.1313 6.70463 12.4836 6.6416 12.3119C7.13686 12.5916 7.7852 12.564 8.26245 12.2494C8.49431 12.1016 8.68563 11.8982 8.81907 11.6577C8.95251 11.4173 9.02385 11.1473 9.02665 10.8723C9.00864 9.21605 9.00864 7.56039 9.00864 5.91373L9.00924 5.91313ZM12.1951 5.36445C12.4652 5.53493 12.7714 5.67061 13.086 5.73304C13.2751 5.77806 13.4552 5.79607 13.6443 5.79607V6.31834C13.086 6.19228 11.8799 5.84109 12.1951 5.36385V5.36445Z" fill="#25F4EE"/>
<path d="M5.5168 7.78536C6.21782 7.35071 7.049 7.17547 7.86583 7.2901V7.88441C7.11003 7.90242 6.4803 8.22659 5.86799 8.67622C5.40935 9.0184 5.09358 9.36898 4.85106 9.89125C4.61693 10.3859 4.51788 10.8001 4.52689 11.3494C4.52689 11.9521 4.68897 12.3844 4.97712 12.915C5.11219 13.1582 5.37333 13.5274 5.31029 13.7975C4.89787 13.5057 4.55376 13.1278 4.30177 12.6899C3.95933 12.1039 3.78796 11.4336 3.80711 10.7551C3.82959 10.1286 4.0123 9.51822 4.33779 8.98238C4.62748 8.49333 5.0322 8.08242 5.5168 7.78536Z" fill="#25F4EE"/>
<path d="M9.56685 3.56396H11.016C11.2411 3.95117 11.2231 4.09524 11.3492 4.33837C11.5473 4.72497 11.6998 4.86905 12.132 5.30127C12.1573 5.31753 12.1788 5.33903 12.195 5.3643C12.5732 5.79653 13.0859 6.10209 13.6442 6.22815C13.9683 6.46228 13.7432 7.40717 13.7432 7.91083C12.7977 7.91984 11.8348 7.55064 11.07 6.99295C11.07 8.19958 11.07 9.31496 11.079 10.53C11.079 10.6921 11.088 10.8452 11.079 11.0163C11.034 11.601 10.7639 12.4564 10.4667 12.9601C10.2134 13.4067 9.8702 13.7959 9.4588 14.1031C8.92607 14.4966 8.28515 14.7167 7.62304 14.7334C7.28781 14.7471 6.95216 14.7199 6.62352 14.6523C6.16488 14.5533 5.72365 14.0941 5.33705 13.8239L5.31003 13.7975C5.12093 13.5994 4.94985 13.3743 4.82378 13.1221C4.53563 12.5999 4.37354 12.0062 4.37354 11.4035C4.36439 10.8532 4.48145 10.3082 4.71572 9.81022C4.95885 9.28795 5.31904 8.81971 5.76867 8.47753C6.37241 8.0244 7.10197 7.76995 7.85656 7.74935C8.06367 7.8478 7.91959 9.36899 7.91959 9.36899C7.67707 9.28795 7.3529 9.31496 7.10077 9.378C6.79461 9.44103 6.63252 9.62112 6.3984 9.81923C6.25433 9.94529 6.12826 10.0804 6.04782 10.2515C5.89474 10.5396 5.90374 10.5756 5.93076 10.8992C5.96678 11.2054 6.0208 11.5379 6.22791 11.772C6.36298 11.9431 6.45303 12.2043 6.63252 12.3213C6.7766 12.5555 6.9657 12.7259 7.17281 12.8256C7.46096 12.9781 7.78512 13.0417 8.09969 13.0141C8.60395 12.9781 9.0722 12.6719 9.32433 12.2313C9.48641 11.9431 9.55785 11.5739 9.55785 11.2588C9.55785 8.60419 9.56685 3.56396 9.56685 3.56396Z" fill="white"/>
<path d="M10.998 3.56396C11.1697 3.57297 11.3318 3.56396 11.5113 3.56396C11.5113 4.12226 11.6914 4.68895 12.0156 5.14819C12.0606 5.21122 12.0966 5.26525 12.1416 5.31028C11.7724 5.08516 11.4843 4.73398 11.2868 4.34677C11.1607 4.11265 11.0617 3.84251 10.9986 3.56396H10.998ZM13.6448 6.22816C13.8333 6.27318 14.0134 6.29119 14.2031 6.29119V8.24401C13.2486 8.25301 12.2941 7.93785 11.5113 7.37115V11.2504C11.5203 11.5469 11.4933 11.8351 11.4303 12.1232C11.2421 12.9976 10.7354 13.7708 10.0087 14.2922C9.62642 14.5679 9.19098 14.761 8.73004 14.8595C8.17235 14.9855 7.59665 14.9765 7.05637 14.8324C6.40037 14.66 5.80722 14.3039 5.34668 13.8059C5.73328 14.0851 6.17451 14.2651 6.64216 14.3642C6.96632 14.4362 7.3085 14.4542 7.64168 14.4452C8.30379 14.4285 8.94471 14.2085 9.47744 13.8149C9.88878 13.5075 10.2321 13.1183 10.486 12.6719C10.7827 12.16 10.9609 11.5881 11.0076 10.9982C11.0166 10.8363 11.0166 10.6739 11.0076 10.512C10.9896 9.31497 10.9896 8.10894 10.9896 6.90291C11.7656 7.46021 12.6985 7.75661 13.6538 7.74935C13.6448 7.24509 13.6538 6.73182 13.6448 6.22816Z" fill="#FE2C55"/>
<path d="M7.86523 7.74023C8.05432 7.74023 8.25243 7.74924 8.43252 7.77625V9.7831C8.15884 9.69468 7.86628 9.68223 7.58608 9.74708C7.0554 9.86414 6.61417 10.2694 6.42567 10.782C6.23658 11.2863 6.30861 11.8806 6.62378 12.3122C6.43468 12.2042 6.2816 12.0601 6.14653 11.889C5.94843 11.6549 5.81336 11.3487 5.77734 11.0426C5.74132 10.728 5.79535 10.3858 5.94843 10.1073C6.02947 9.93618 6.15553 9.7921 6.29961 9.66604C6.53373 9.46794 6.83029 9.34187 7.11844 9.26083C7.36156 9.2068 7.6227 9.1978 7.85682 9.27884C7.86523 9.1978 7.86523 7.93774 7.86523 7.74023Z" fill="#FE2C55"/>
</g>
<defs>
<clipPath id="clip0_21_8">
<rect width="18" height="18" fill="white"/>
</clipPath>
</defs>
</svg>
