<svg width="18" height="18" viewBox="0 0 18 18" fill="none" xmlns="http://www.w3.org/2000/svg">
<g clip-path="url(#clip0_21_5)">
<path d="M9.00101 7.73505e-07C4.02793 -0.00206487 0 4.13335 0 9.23755C0 13.2738 2.51972 16.7048 6.02882 17.9649C6.5014 18.0868 6.429 17.7418 6.429 17.5063V15.9054C3.70015 16.2339 3.58954 14.3789 3.40655 14.0691C3.03653 13.4205 2.16177 13.2552 2.42319 12.9454C3.04458 12.6169 3.67802 13.028 4.41202 14.1414C4.94291 14.949 5.97855 14.8127 6.50341 14.6784C6.61803 14.193 6.86337 13.7592 7.20121 13.4225C4.37381 12.902 3.1954 11.1297 3.1954 9.02272C3.1954 8.00023 3.52318 7.06036 4.16669 6.30227C3.75645 5.05256 4.20489 3.98256 4.26522 3.8235C5.43358 3.71609 6.6482 4.68281 6.74271 4.75924C7.40632 4.5754 8.16445 4.47831 9.01307 4.47831C9.86571 4.47831 10.6259 4.57953 11.2955 4.76544C11.5227 4.58779 12.6489 3.7574 13.7348 3.85862C13.7931 4.01767 14.2315 5.06289 13.8454 6.29608C14.4969 7.05623 14.8287 8.00436 14.8287 9.02892C14.8287 11.14 13.6423 12.9144 10.8068 13.4267C11.2794 13.9059 11.573 14.571 11.573 15.3064V17.6302C11.5891 17.8162 11.573 18 11.8747 18C15.436 16.7668 18 13.311 18 9.23961C18 4.13335 13.9701 7.73505e-07 9.00101 7.73505e-07Z" fill="black"/>
</g>
<defs>
<clipPath id="clip0_21_5">
<rect width="18" height="18" fill="white"/>
</clipPath>
</defs>
</svg>
